<mxfile host="app.diagrams.net" agent="Mozilla/5.0 (Windows NT 10.0; Win64; x64) AppleWebKit/537.36 (KHTML, like Gecko) Chrome/133.0.0.0 Safari/537.36" version="26.0.16">
  <diagram name="Page-1" id="0lRqOrAoHGBjvGdrQGsE">
    <mxGraphModel dx="1050" dy="557" grid="1" gridSize="10" guides="1" tooltips="1" connect="1" arrows="1" fold="1" page="1" pageScale="1" pageWidth="850" pageHeight="1100" math="0" shadow="0">
      <root>
        <mxCell id="0" />
        <mxCell id="1" parent="0" />
        <mxCell id="nFuh9qucb5mVnLctKsbE-24" value="" style="edgeStyle=orthogonalEdgeStyle;rounded=0;orthogonalLoop=1;jettySize=auto;html=1;" parent="1" source="nFuh9qucb5mVnLctKsbE-1" target="nFuh9qucb5mVnLctKsbE-23" edge="1">
          <mxGeometry relative="1" as="geometry" />
        </mxCell>
        <mxCell id="nFuh9qucb5mVnLctKsbE-1" value="2010-2019 Data" style="sketch=0;pointerEvents=1;shadow=0;dashed=0;html=1;strokeColor=none;fillColor=#505050;labelPosition=center;verticalLabelPosition=bottom;verticalAlign=top;outlineConnect=0;align=center;shape=mxgraph.office.users.csv_file;" parent="1" vertex="1">
          <mxGeometry x="40" y="141" width="59" height="43" as="geometry" />
        </mxCell>
        <mxCell id="NZkZbd7a0sw77gBRgtX3-13" value="" style="edgeStyle=orthogonalEdgeStyle;rounded=0;orthogonalLoop=1;jettySize=auto;html=1;entryX=0;entryY=0.75;entryDx=0;entryDy=0;entryPerimeter=0;" edge="1" parent="1" source="nFuh9qucb5mVnLctKsbE-2" target="nFuh9qucb5mVnLctKsbE-23">
          <mxGeometry relative="1" as="geometry">
            <Array as="points">
              <mxPoint x="135" y="242" />
              <mxPoint x="135" y="203" />
            </Array>
          </mxGeometry>
        </mxCell>
        <mxCell id="nFuh9qucb5mVnLctKsbE-2" value="2020&lt;span style=&quot;background-color: transparent; color: light-dark(rgb(0, 0, 0), rgb(255, 255, 255));&quot;&gt;-Present Data&lt;/span&gt;" style="sketch=0;pointerEvents=1;shadow=0;dashed=0;html=1;strokeColor=none;fillColor=#505050;labelPosition=center;verticalLabelPosition=bottom;verticalAlign=top;outlineConnect=0;align=center;shape=mxgraph.office.users.csv_file;" parent="1" vertex="1">
          <mxGeometry x="40" y="220" width="59" height="43" as="geometry" />
        </mxCell>
        <mxCell id="nFuh9qucb5mVnLctKsbE-15" value="" style="group" parent="1" vertex="1" connectable="0">
          <mxGeometry x="530" y="110" width="310" height="100" as="geometry" />
        </mxCell>
        <mxCell id="nFuh9qucb5mVnLctKsbE-14" value="" style="rounded=1;whiteSpace=wrap;html=1;fillColor=#dae8fc;strokeColor=#6c8ebf;" parent="nFuh9qucb5mVnLctKsbE-15" vertex="1">
          <mxGeometry y="20" width="310" height="80" as="geometry" />
        </mxCell>
        <mxCell id="nFuh9qucb5mVnLctKsbE-8" value="ETL" style="swimlane;childLayout=stackLayout;horizontal=1;fillColor=none;horizontalStack=1;resizeParent=1;resizeParentMax=0;resizeLast=0;collapsible=0;strokeColor=none;stackBorder=10;stackSpacing=-12;resizable=1;align=center;points=[];whiteSpace=wrap;html=1;" parent="nFuh9qucb5mVnLctKsbE-15" vertex="1">
          <mxGeometry x="7" width="296" height="100" as="geometry" />
        </mxCell>
        <mxCell id="nFuh9qucb5mVnLctKsbE-9" value="Cleaning" style="shape=step;perimeter=stepPerimeter;fixedSize=1;points=[];whiteSpace=wrap;html=1;fillColor=#d5e8d4;strokeColor=#82b366;" parent="nFuh9qucb5mVnLctKsbE-8" vertex="1">
          <mxGeometry x="10" y="33" width="100" height="57" as="geometry" />
        </mxCell>
        <mxCell id="nFuh9qucb5mVnLctKsbE-10" value="Join" style="shape=step;perimeter=stepPerimeter;fixedSize=1;points=[];whiteSpace=wrap;html=1;fillColor=#e1d5e7;strokeColor=#9673a6;" parent="nFuh9qucb5mVnLctKsbE-8" vertex="1">
          <mxGeometry x="98" y="33" width="100" height="57" as="geometry" />
        </mxCell>
        <mxCell id="nFuh9qucb5mVnLctKsbE-11" value="Views" style="shape=step;perimeter=stepPerimeter;fixedSize=1;points=[];whiteSpace=wrap;html=1;fillColor=#fff2cc;strokeColor=#d6b656;" parent="nFuh9qucb5mVnLctKsbE-8" vertex="1">
          <mxGeometry x="186" y="33" width="100" height="57" as="geometry" />
        </mxCell>
        <mxCell id="NZkZbd7a0sw77gBRgtX3-3" value="" style="edgeStyle=orthogonalEdgeStyle;rounded=0;orthogonalLoop=1;jettySize=auto;html=1;" edge="1" parent="1" source="nFuh9qucb5mVnLctKsbE-23" target="NZkZbd7a0sw77gBRgtX3-2">
          <mxGeometry relative="1" as="geometry" />
        </mxCell>
        <mxCell id="nFuh9qucb5mVnLctKsbE-23" value="&lt;div&gt;&lt;b&gt;Data&lt;/b&gt;&lt;/div&gt;&lt;div&gt;&lt;b&gt;Managements&lt;/b&gt;&lt;/div&gt;" style="outlineConnect=0;whiteSpace=wrap;fillColor=#EBEBEB;shape=mxgraph.archimate3.application;appType=proc;archiType=rounded;align=center;html=1;" parent="1" vertex="1">
          <mxGeometry x="170" y="82.5" width="90" height="160" as="geometry" />
        </mxCell>
        <mxCell id="nFuh9qucb5mVnLctKsbE-33" value="Data Management" style="swimlane;childLayout=stackLayout;horizontal=1;fillColor=none;horizontalStack=1;resizeParent=1;resizeParentMax=0;resizeLast=0;collapsible=0;strokeColor=none;stackBorder=10;stackSpacing=-12;resizable=1;align=center;points=[];whiteSpace=wrap;html=1;" parent="1" vertex="1">
          <mxGeometry x="62" y="330" width="296" height="100" as="geometry" />
        </mxCell>
        <mxCell id="nFuh9qucb5mVnLctKsbE-34" value="Create&amp;nbsp;&lt;div&gt;Schema&lt;/div&gt;" style="shape=step;perimeter=stepPerimeter;fixedSize=1;points=[];whiteSpace=wrap;html=1;" parent="nFuh9qucb5mVnLctKsbE-33" vertex="1">
          <mxGeometry x="10" y="33" width="100" height="57" as="geometry" />
        </mxCell>
        <mxCell id="nFuh9qucb5mVnLctKsbE-35" value="Read Data" style="shape=step;perimeter=stepPerimeter;fixedSize=1;points=[];whiteSpace=wrap;html=1;" parent="nFuh9qucb5mVnLctKsbE-33" vertex="1">
          <mxGeometry x="98" y="33" width="100" height="57" as="geometry" />
        </mxCell>
        <mxCell id="nFuh9qucb5mVnLctKsbE-36" value="Fix Data&amp;nbsp;&lt;div&gt;Types&lt;/div&gt;" style="shape=step;perimeter=stepPerimeter;fixedSize=1;points=[];whiteSpace=wrap;html=1;" parent="nFuh9qucb5mVnLctKsbE-33" vertex="1">
          <mxGeometry x="186" y="33" width="100" height="57" as="geometry" />
        </mxCell>
        <mxCell id="nFuh9qucb5mVnLctKsbE-37" value="" style="endArrow=none;html=1;rounded=0;exitX=0.014;exitY=0.11;exitDx=0;exitDy=0;exitPerimeter=0;" parent="1" source="nFuh9qucb5mVnLctKsbE-33" edge="1">
          <mxGeometry width="50" height="50" relative="1" as="geometry">
            <mxPoint x="130" y="293" as="sourcePoint" />
            <mxPoint x="180" y="243" as="targetPoint" />
          </mxGeometry>
        </mxCell>
        <mxCell id="nFuh9qucb5mVnLctKsbE-38" value="" style="endArrow=none;html=1;rounded=0;" parent="1" edge="1">
          <mxGeometry width="50" height="50" relative="1" as="geometry">
            <mxPoint x="340" y="350" as="sourcePoint" />
            <mxPoint x="240" y="243" as="targetPoint" />
          </mxGeometry>
        </mxCell>
        <mxCell id="nFuh9qucb5mVnLctKsbE-39" value="&lt;b&gt;Dashboard Report&lt;/b&gt;" style="sketch=0;outlineConnect=0;fontColor=#232F3E;gradientColor=none;fillColor=#8C4FFF;strokeColor=none;dashed=0;verticalLabelPosition=bottom;verticalAlign=top;align=center;html=1;fontSize=12;fontStyle=0;aspect=fixed;pointerEvents=1;shape=mxgraph.aws4.opensearch_dashboards;" parent="1" vertex="1">
          <mxGeometry x="630" y="440" width="78" height="59" as="geometry" />
        </mxCell>
        <mxCell id="NZkZbd7a0sw77gBRgtX3-1" value="" style="group" vertex="1" connectable="0" parent="1">
          <mxGeometry x="380" y="22.5" width="130" height="257.5" as="geometry" />
        </mxCell>
        <mxCell id="nFuh9qucb5mVnLctKsbE-29" value="" style="rounded=0;whiteSpace=wrap;html=1;rotation=90;" parent="NZkZbd7a0sw77gBRgtX3-1" vertex="1">
          <mxGeometry x="-50" y="77.5" width="230" height="130" as="geometry" />
        </mxCell>
        <mxCell id="nFuh9qucb5mVnLctKsbE-20" value="" style="group;strokeColor=none;perimeterSpacing=50;rounded=0;" parent="NZkZbd7a0sw77gBRgtX3-1" vertex="1" connectable="0">
          <mxGeometry x="40" y="40" width="85" height="183" as="geometry" />
        </mxCell>
        <mxCell id="nFuh9qucb5mVnLctKsbE-17" value="Database Partition 2010" style="image;aspect=fixed;perimeter=ellipsePerimeter;html=1;align=center;shadow=0;dashed=0;spacingTop=3;image=img/lib/active_directory/database_partition_3.svg;" parent="nFuh9qucb5mVnLctKsbE-20" vertex="1">
          <mxGeometry width="50" height="37" as="geometry" />
        </mxCell>
        <mxCell id="nFuh9qucb5mVnLctKsbE-18" value="Database Partition 2011" style="image;aspect=fixed;perimeter=ellipsePerimeter;html=1;align=center;shadow=0;dashed=0;spacingTop=3;image=img/lib/active_directory/database_partition_3.svg;" parent="nFuh9qucb5mVnLctKsbE-20" vertex="1">
          <mxGeometry y="73" width="50" height="37" as="geometry" />
        </mxCell>
        <mxCell id="nFuh9qucb5mVnLctKsbE-19" value="Database Partition N" style="image;aspect=fixed;perimeter=ellipsePerimeter;html=1;align=center;shadow=0;dashed=0;spacingTop=3;image=img/lib/active_directory/database_partition_3.svg;" parent="nFuh9qucb5mVnLctKsbE-20" vertex="1">
          <mxGeometry y="146" width="50" height="37" as="geometry" />
        </mxCell>
        <mxCell id="nFuh9qucb5mVnLctKsbE-30" value="&lt;b&gt;Database&lt;/b&gt;" style="text;html=1;align=center;verticalAlign=middle;whiteSpace=wrap;rounded=0;" parent="NZkZbd7a0sw77gBRgtX3-1" vertex="1">
          <mxGeometry x="35" width="60" height="30" as="geometry" />
        </mxCell>
        <mxCell id="NZkZbd7a0sw77gBRgtX3-11" style="edgeStyle=orthogonalEdgeStyle;rounded=0;orthogonalLoop=1;jettySize=auto;html=1;exitX=0.5;exitY=0;exitDx=0;exitDy=0;" edge="1" parent="1" source="NZkZbd7a0sw77gBRgtX3-2" target="nFuh9qucb5mVnLctKsbE-14">
          <mxGeometry relative="1" as="geometry">
            <mxPoint x="600" y="80" as="targetPoint" />
            <Array as="points">
              <mxPoint x="315" y="20" />
              <mxPoint x="601" y="20" />
            </Array>
          </mxGeometry>
        </mxCell>
        <mxCell id="NZkZbd7a0sw77gBRgtX3-2" value="" style="image;aspect=fixed;perimeter=ellipsePerimeter;html=1;align=center;shadow=0;dashed=0;spacingTop=3;image=img/lib/active_directory/database.svg;" vertex="1" parent="1">
          <mxGeometry x="290" y="144" width="50" height="37" as="geometry" />
        </mxCell>
        <mxCell id="NZkZbd7a0sw77gBRgtX3-6" value="" style="endArrow=classic;html=1;rounded=0;entryX=0.142;entryY=1.028;entryDx=0;entryDy=0;entryPerimeter=0;" edge="1" parent="1" target="nFuh9qucb5mVnLctKsbE-29">
          <mxGeometry width="50" height="50" relative="1" as="geometry">
            <mxPoint x="340" y="160" as="sourcePoint" />
            <mxPoint x="390" y="110" as="targetPoint" />
          </mxGeometry>
        </mxCell>
        <mxCell id="NZkZbd7a0sw77gBRgtX3-7" value="" style="endArrow=classic;html=1;rounded=0;entryX=0.472;entryY=1.003;entryDx=0;entryDy=0;entryPerimeter=0;" edge="1" parent="1" target="nFuh9qucb5mVnLctKsbE-29">
          <mxGeometry width="50" height="50" relative="1" as="geometry">
            <mxPoint x="340" y="159.5" as="sourcePoint" />
            <mxPoint x="376" y="82.5" as="targetPoint" />
          </mxGeometry>
        </mxCell>
        <mxCell id="NZkZbd7a0sw77gBRgtX3-8" value="" style="endArrow=classic;html=1;rounded=0;entryX=0.726;entryY=1.022;entryDx=0;entryDy=0;entryPerimeter=0;" edge="1" parent="1" target="nFuh9qucb5mVnLctKsbE-29">
          <mxGeometry width="50" height="50" relative="1" as="geometry">
            <mxPoint x="340" y="160" as="sourcePoint" />
            <mxPoint x="396" y="103" as="targetPoint" />
          </mxGeometry>
        </mxCell>
        <mxCell id="NZkZbd7a0sw77gBRgtX3-10" style="edgeStyle=orthogonalEdgeStyle;rounded=0;orthogonalLoop=1;jettySize=auto;html=1;exitX=0.75;exitY=1;exitDx=0;exitDy=0;" edge="1" parent="1" source="nFuh9qucb5mVnLctKsbE-14" target="nFuh9qucb5mVnLctKsbE-39">
          <mxGeometry relative="1" as="geometry">
            <Array as="points">
              <mxPoint x="763" y="470" />
            </Array>
          </mxGeometry>
        </mxCell>
        <mxCell id="NZkZbd7a0sw77gBRgtX3-23" style="edgeStyle=orthogonalEdgeStyle;rounded=0;orthogonalLoop=1;jettySize=auto;html=1;exitX=1;exitY=0.5;exitDx=0;exitDy=0;" edge="1" parent="1" source="NZkZbd7a0sw77gBRgtX3-12" target="nFuh9qucb5mVnLctKsbE-39">
          <mxGeometry relative="1" as="geometry" />
        </mxCell>
        <mxCell id="NZkZbd7a0sw77gBRgtX3-12" value="Airflow" style="shape=image;verticalLabelPosition=bottom;labelBackgroundColor=default;verticalAlign=top;aspect=fixed;imageAspect=0;image=data:image/png,iVBORw0KGgoAAAANSUhEUgAAAgAAAAIACAMAAADDpiTIAAADAFBMVEVMaXEAt1roOiEArUX9bU8AsOkAfe0Aypr+LhbkOCAAofAC0FUArUUAx9UAx9QAtEUAfvEAe+7oOyMAyNQAe+8Af/bkOCDoPCMArUQBytjtOBzlOCAAe+4AuUHpPyYAwOQAgPEAe+8CzFPkOCAAe+8Ax9QAtEcAfO8Ar0UAx9UAeP3kNyDkOCAAx9QAx9QAfPAArkQGofkArUUBy9nmOiICzNkL2ecI1d8BytlMaXHlOCAAe+8Ae+4AydUAx9UAe+/qQinlOB/7aEsArUQArUUAfvAAx9XmPCMAe+8ArUQJrf0ArUXpQCcArUXbPioAe+4Ar0bkOCABytgAsk0AyNUArUQCxNwAyNUArkQBu0wAx9UAskcArUUAeu8BxNwAe+8CiPLxSSsArUUAt0kAydYNr/vrPiUArUUElfYBzNgCzVQAycLlOCAM2OX2X0MAffAHpfsAx9UMq/oAx9QDlfgArUXlOCAGoPkJ0ucAskgAu0rnMxsAwEwAr0X3YUQK2ebSSjoAsEQByFEK2OYK0t8CkfUAtUgO3esL2ub1Wz8Aj/UCylL1XkH5ZUn5ZUgJvvAGovruYkf1X0IGovr4Y0b5ZEgCy1IM2+dGi70K1+dMaXEAfO/lOCAAx9UArUb/dFYQ4e8Mt/8E11hKSEgC1VcH1eIKsv4BzNkP4e0M3OjyVTrpQikO3+oAtkz+cVMCifIBwU4Cx1AIp/sDwHj5ZkkC0l4Ct2XuTDLlOyMSwcsBm7y/S0IM184GmfcAht7tel8GxI2QmY4K0LcKtv8Af+8Ek/YCtY98dIwAvEuuW1kIyaCYZG4+s7YCy2vCiXQCvIZClsZfqaarkYAAsUY2Z1QZwMP5dllFU1QhqekAjdJrpJ8xoNhZibAqscwAr0YBp6kCg/EVr/KNa3oAkcwEj/VRrax4mZclp+Ueo6sCrZ0afsDUhGs2VHAyeX4WnUwCrpoUxrFve5jffmaDVkxmREAKza8ycI1wRD4CsZZsfJ0ockYoXpGFQjgCrZ8Cq6FsUEpl8oCqAAAAm3RSTlMAFSzw/gz+AgT0BP7b9ugnJPZW/dYW20j6QhDF4ws6FTZN/eeU3D/vTcQKif2i0Wtz/v4pbln++xsAqsW5c65dYaH2rR9AjZR6Z/7DeLj+r4K/N/2BziNiM6CYkY3+Z4aYGFn7TfshnX1R7Da12vul0u/yuEzm0Ox8nl4bcl20oPk3xI/xYL/0u30o14rj3K6kmZy5ztXfwYtmACRNwT0AAAAJcEhZcwAACxMAAAsTAQCanBgAACAASURBVHja7X0JtBzVeeYToCr0xCY12kCIRYAEKpB4CKGSwaCwCLGDwGCgICasNmbxgnOCGYMzHDzYmUPiSTI+Vd3vdbvUapBYRUOB2BuzGss29osBj1gsTDzOcuzEiZ2Zk5lT+//fpbqqu5Zbrb6S9fr1637vmf+7//3+7bsj6nDt0Gtk+J9gCAB1p9WzDWPawoWzb7113/OCdcMNq1avXrNmyZIzly8/8cSZM+csWLDTbfsM/5MNxJp6zEWfCgCw0zTFsBTFUCzFIJdiL/uj4X9t2sLZ+553wyobHEuWLFl+4sw5C3a6ZoiLcq3jq9Vq9Yuf8gBwq6JYhmUolm1oi/zrwMD9133KfbVh40IJETNt9r43rF5y5okzh3AQf32y6qw9VjoAWOBZ2V6WYSnhX+85xXva/4L/pPOQeLELCWvawtm3nrdqzZLlM+fsdNvwP7ho9q+4AKhc4gDgTCXc+OgMgD7ACI4A99UG+ALpLmxYQDgYC2+9YfWZJ87ZaegZRFjyEVV/HeIAYHm48Q3sAPBz4UcXHdAhuK8ywOfwGzoMwz0nzlu9ZPmcBZ8ZmqE4+19SDZcDgGvAlocb2rV08Bzx0Qg/9ze/FToI+3PFMixIJ70vO9Rh2ux9Vy9ZPnPBbbsOLZLzgvavuCRwjb/lFbCh/W2swFOf8dFyXQPc7t5jx+iIUfh+xOcUdoQx+4Y1y+fsNMRBIfbf3csD3GAE+1UhznQLnvqcj561LcAULEgVfIeCHA1mFtbC81afOXPBkCRkvU6twnWLnwm8IdyvMBAAzxlRH10/oQCiYACqEBwBmFsAZhGkHIyF+646c+ZOQzvlY/9KAAB1VbipiSgA0X/2x5AsKOBzg3QBBuIW3tNEtOF6jmm3rjpz5jXDYyH1dUEVrz0CAOy6ymKkART0HPeju7uNIF1g+Hscvp1w/RbIO4BoI6QeijFt3zUnDslB6vk/6AH2AMWg1SCMD3cqeI7/UbFCl+99TlAEd5crgF4YcNcHDILIPCiK4qBgaLp07F+pEAg4BFYDV6MwPvTyMaKAYO+CNAF65HkTzBDArg8eosxDkEyadt6amdcMDdjnupw0PwEAdY1BRwGWES8KCJxFmCZQIAuwDJBntNA5EEYbROaBKEZMO2/JnGGU0Pu6qEqvI2XUD7CGEQUY3aIAsMMtyALgI+RNQBRghEwD+AIFEYnQP9gvnb1m5rC00NM6psICANEQsgT5/1hRQJDyA/vfAPsWsX/DQFFAsOuDnAPOPFjAPyhhmLFw9fIhK0i6rmfZnwKAvCRxFAA8OqgaEizA3cMoz2iBXR94G5x5oPyD/4vZ+YJVy4cBQt/2rxxGtYSdmTAKMAC5Dx0AxQL8nawYKAoA3MEywp4E8EbkH8L3OJ9Mu+HMoSeIt65i2r9apQEgL1diRgFgs1tBnM9jAUrYbgDzhEF0oITgAd+C8g+WAQMOey1cPXNIDLsteV6FA4Av0k2h8nIcBIT7lsH+A5dtBCSfwwJQgA/yhFZwyKOgw/f8hH8wAFXwXIJiGPsuWTA0ctSat3u1GhsAqnyiAuJwxQChPuOjQu5kFgsIA3wUBTC5JSQZpH8wwlwTTBfYjmDNnCEjSG7/6ieZbeEnKiAIYLcEGSTlB86CYgEowA+jAAN6GQYBACwkeJFC1Ck9x2CDYOHqmUMMsNb5fPtzAKDOhEEAsyVIITe7AVN9oFsQFAIU/xQn+gYM4G0QhyDQZuFcIkoXuHCdtmrm0N5J7F89gg0AeaZigGPZC/V5YQDcyQo+whWY00NVQEMxOIc8mY4kS4VEhgJwA5sRLFwz5ANofe6WanIAqPIcRUF0jF8MACV9heogBsVB1HYMdjI85BXoVgANCYsGFpV3hDll94fNXjIsGwTr6Ej7Vy/hjYbZCLDQzuYVAwxQ0ic4vAKLg7Dt2AKuAR3yyH1gB4GCB/SjwO/ngkgx9l0+jA3j2J8PAFWdo6BIIDIMCGk6ywGA/gBU/rMYlNLiRQFU8EC4H+ACnM+nrRqGBd3tXzk1Yjh0wTTDCiOByDAA7GCGA4AtQhYjKWgxOQQRBQSRhIJZhEI0IBphpnDhmh09T/ipPapd1gVyxHTwnGkG2tn8MIDm8DQLoMp/yaIA4DfovKMBuxNDd6QY5+3IkaG8sqv9qxdEjocvmGbgmUFuGEBxeJoFUOU/ThRgMKMA6Deo7gPYdwr8hvOKhUt22BmUGPavHi9H6gMsmIb/I3OqAQwOz2ABuPxnMFN9oFUYJyOpliI0ZaAQM0og76goxqoFQ/tzAdBFIGKnacgF8KoBDA5PswCD2ut0FABdjYFfDDiChfOO8G0Kyhr4nmLfHTA/tPKQSgwAXB7tAVR5p4XABTB7gYiaQRQLoCJ+FrOEo8eQggCOQAQNYDAFjTgqgA3ceuIORgb2P6QaZ13UTSJG3mkhPLLpXiBUM1C6swDkLRi1ALKHiMURGNwANSADvIVkYfbyXeUdyf6VWAA4Ru6qEWT7AIUs0+GSvxGZByRZAMziUVEAY56I5ghsbmAQQ4gKfpVlLFy+w3iB/Y+MZ//q9TFEoq5ZiPt9LLLkj2sG3VgAShgavB1OjhRaRKBhsWMK9A78KnvNPnHHsP/UI6sx11VxVMJuW4jiboMs+eOaQTQLsEhnwtzhuOqHWAaVeAw9Cmw4RAwgbEdQbp05tD9c82LJxF0zG57wdNeeYqGEYRQLQOE8Jwog54lwZwKReCSCByIEoGePlH0HPiicelglNgDOl2PpBN42G5zwVNce6uDqwgJQOM+qBTDmifDPYDEAAysVMBgAmDdQVn9mwO1fjb/OjykU+ZnZisUuAmAGYHTNBViEM6E6gqh5IsbPYHMDiwoBwlcB2SLDmDbIbHA0wf6vVo+OqxS6z60GsxhA2Ji//1GXb3QUgOeJWD/DoLgBkCxiMwCsTzB7UM8BefSL1STrU7GlYm0E0MUAyyD+iWQBdNsAPRZAzxMZ1M+wGMMEClQqYDAAxcJRwqrBHDBLaP/qytgAkPe5lSjtGUyPz3cACqNoQLX9WtQ8EWYACjs7gFgFiwHgJKL93ECeA6OfTGb/6tQEYtH77KtQxQCGC+ATAJjZ43YEUfNEmAFgvmBR80QKjwHgVgLH19w6cO0CclL7V0flBGrh++xLFAMshqWj0gBU4w8vCgj9jEL/DEth0lFYoGAwACB/FAwbK2sGrHEssf0ryeTidz3PIts0SB8QmQagGn/4UYARCg/SLoZ+F05NcBiAQuiZWYoyWGTwiGolIQBuSQYAedfziCiAJnn8NABZ32dHAYAFoK2ssOsCBtWKEMyqYQYQ5hYV2GOsLB8c/39JNfHaI+mFEbveYDBOcMZcDysCiBUFoHQDkwHA2J/nOWgGAFoJYI+xYtwwKMdAD/a3FWKSAUDe9QbWCd61JzBuFKDgQoFicZBEJASI+IGVAzCQnhnUNV64YIe1v60PkfjKmFXEqY4PYqW/KIAsFDBYBiMKUChZAYoBWFCvGDoAe6zwzAGw/6m92L96mNzDnUGrLH4UYPUbBaCQnsEAGFGAFc4dk/kJoowYZiOxLrqxqvQpgQuqvQGgp0ujVim8KMDoPwqwyDCA4WbIkUGkUmoQPoKaboQOwHdLt15T7m6h43uzf/WTck+3hq3mRAHksEBPUQAOAxipRiIKgDLntGfC041EsQAoYk2bsyPav/LJHq+NW8OMAqiZ4Z6jADwEHBkFIJlzfn7Cnx6ExQKkiKgsKa/9L08c/wejgXKP9wauYUQBzJnhHqKAqDwDGQUgiYAu77PgbIJCuCVLUVaX1f4XVXtd9pVBPV4cucSiowDGzHBvUQA/z0BMC2GJgC7vU8AQsUW4JUda4IZyUsGLKj0DwJ4M6/Xm0CWMKMBC4mA9RwH8PAM5RggUBcmfFOECoLA5IhC3ljEndEwf9q/0AQBbUJAVBXALgvGjAMZXWaUAfEEBOwogogvfBQQeg8hfzC5fk8D1fdjfmQzrFQCyvJwZBfBFAmJGAYyvskoB5AUFnCiA6F0zUOMwaA/wfr2FZasQX9WX/e3BoN4vj5aXG6xKIJcFxI0CrC7VRsAAkBRhlyggsLWC2wewGnLJ8sJXVfsDwDH93R5+osKoBHJZQNwoQOlSbQy8Df6h3aMABaqa4vaA4O/GhWVKCFy1e7W/dVWf18efqPAkfjOKAjADoNRKo6MHnwWQ15uhmWJr2pzSJAXn9Wt/ey6kLwDYCGBpe2QWBRAMgClKyE9Io44h4CwQL7CeKMn8mHx+3/avfK5fAKgzFabCX0ZRAIMBEBwjKgqwYMeQQt5d4H9ZUZ44sRQ+oH/7O13hfQJAnqPQCn9MFpBCFEAxAAbJ4EYBsC+YdEuAFyiKNe3+/1YG+9/Sv/2r+/cNgFBQkBwByiIKoBkASTIiogCiLxjfXQDmUAxLuVF8BHwuDfvbTcH9AsATFCTvCsgkCiAZgMEgGfwoQMESY+iSY3xTmWX90bcEt//RqdjfbgruHwDqnGmsuwLSjwJIBkA4GnA7KY8BIK+jEBdYAlVja+P4t3YA+1f3kFMBgCcmhllA+lEAyQDIYUR8O6nCnVoi9MYU4t509+X3C42AT+2Riv2dntA0ACC7goJovyvpRwFGZDcweTspsx5IXGGooPvLgKqxYTw2/pcDb3+nJzQNAKjyTtO6soC+owCaASjMBGCMKAB+oqB70wNnYT04/leCxv8r07K/fWdYOgCwEdCVBfQbBdAMwGImAJWIKADLCOHLBoi7DZ4YH/8rIRsEVu5RSQkA9n0hKQHAFRSMZgH9RQEKiwEozAQgr5OIkBgDwuOYeLjfw3psfPy/CGj/uAJwcTzAEekBwBUUjGIB/UYBTAZgMRKA7F5iSmIMvEnBmQHvN9o4LiICYgpAxlunpggAR1CQfWNQKlEAmwEYdAKQywAIiTGcCEDFTA9/9wuIgFTt73SEpQcAW1CQnZxPIwpgMwBCXJitKMKTGAvfxGQBhvXg+Pj4/xDL/kemaX+nIShFALiCgozkfP9RAI8BEOLChhLFAEiJsbAlmM0CFNsFCIWAqena32kIShMA6jWzcXcuGhPoLwpgMwAsLtyFAWCJMeIqEwYLUJRdbAT8tUD2r6QLgOvTBoAtKMhKzvcZBYRnCUsvIFpTjCsxBhMBCpMFWHYoOD4+/t9Fsf9h1ZTXvNQBEAgKUg13/UQBxCwApxVZ6cYAyIlieOsgkwUo1i4CISB9+1c/lz4AXDk51tU+PUcBlmJwGQBsReZpirHmiiw0x6CwWYBhuSxgfPwvBMj/jaZvf1skLnUAqPvcapHJ+b6iAII7cIv8XEUR1lyRQTgPHgtwAgEbAYXnBJMKAMYViUsfAK6oKH21T69RAMEdOEV+rqYYc64IdhRidVLEAiw3FyACAjKx/+5qJgBw5eToq316iwLwNzJ4RX6ephinq9gg5hi4LGDjpI+AfQbO/o5EVBYAUPfZF9fle48CFLKAx5Um5WiK8STGaGVyTi7gMQ8A439UIAKSC0DGrwZnAQB11/PQCd9HFEBk+XlF/tgMAN0pCJXJOSzAeMIHwPhffGbA7O8IxGQDANmWlLTw9E4vUQBq41MiJn6UeAyAuFPQ6sYC7G8aAGD8jwpCgHxEJRP7O/og2QDAERRk1d2SRgEEVeBl+KM8BCMKoDWF2CzAed2NhSPgkmpG65IMAeBISvYbBRBXB0XN/Ud4CDoKIDWFOCzAdRQbxwECChgflzOzv1sMzAoA6q6rUMqtlyggGOmlEoLU3D9XU4whMUY4AC4L8H6rBwECJq8ZnP3vFQMzA4CNAAP03fcQBVAJe+7cv6V0rQIECQCkEBLFArwXu2eAFw7ukjcCTs3O/s5weIYAcAUF+4gCDCJhHzH3b8RlAAa4RKwrC3BfBc+A8fEH85WQuCBD+1fnyRkDQF1tKcmjAHrKMHriB4QAsaIArCwQzQLsb20hAEw+uGBQ7O/WgjIFgLoa1d3iRQGsKcPoiR/cMtQ9CGAIm7NZgPvNbxwnfEBuw8PHVzIFwMrsAaCuCbuwYkcBjPmCyIkfC18R0L0UwBA2Z7EAn788MU4gIC8fcHm29q+O5gAAW1AQXOsdVymUwQKi1b9iMgCDd7MJiwUE7YK+9w8RkIsPuDxb8zvXhWQPAHWJgYS5u0YBRCch0bLHU/+KxwDQRQJWNxbgeyqvLQSuPISELsrY/u5kYPYAcAUFY0cBlOCwZaBLxHhRQDwGYPBvNrFY2QcXrTdSABjP/g7qYypZA+AwORcAuIKCiW4NMww2C1D47f6xGIBhRNxsgq5Hh6UImgTkgYDrM7e/OxiWgwewBQWT3RrGyQUY/Ln/WNvfopRB+SwAXo+obIQEIECAXHL7e6WAHADgycnFvzWMnQuImPiJuf2VsKxodWcBgAzAPEDwKEsxsatysH/lgvwAoJ6oKMmiAJoFRPB8JbYLMKJuOLbYvEOxjMfGWSs7MbF5lRwA4I6F5AQA9USltyhA6ZYHNJQELiBIAsZlAe4PDjoDiZWVlNS83at5rKvyBIAtKNhbFNAtD5jEBRiGFXGpCZsFuIIxeSLg/HzsXz0/VwDsOkdJEAXQp3PkhVQxXQCWB4rFAlwPsBGf/5NZIkDOy/5eJjgvAISCgjGjAOp0jtrcRjwCYHS54JTFApyfO85b3yrt/vczwbkBwBYUNHqIApTIPCC8CqBbCsDqesEpgwU4vwwfAKkj4Pxb8rL/HmreAPAEBanp/G5RQGQe0CL7hmIVAuKzAPfXfIyPgHTFxI7Ozf5eU3iuAFAXTKOn85l3B7NP56gcvxW7EKBE3G3IzAUoBqgI0zzgr8pp/8oXCwCAJyhIafaRdwdbzNPZipb+SFAIUBKxAIMbB3oI2DVF+1dyQ8AlBQDAExSkNPvoOz6p07nb3H8sFsBQGI6TCzBcAEzyEJCWkFBqApAJeoJzBoArKAjv8mbeHczapt1P+Hh1AO61ZlEVgSfGI1c6CFiZq/39RGDOAHAFBeE5z7o72OBKDBpdREC7dgMpUZebclkABsBkJgjI2f6Vq4oBgCcoCGT62VEAT2KQG+J3ZQEcheFYuYCNrH0PcdC/lNTKQ3I8/+11dEEAcAQFwf1dMaKAiKkg6sKy7upASmIWYLEBgFa/CEhXADDO2r8wALiCggpKzUVGARFTQYziQkQdgKEwHIsFKArX+Qfrr0tm/93V4gCg3rYwHL1hRwERQuNGlEpAZB2Amj6MXRGwuLYPn+5DSkqeekglZ/tXDikSAOpts5H4HzMK4EgMRlwFYHSpAzCmD+OygAfHu9DAvhCw/5F5279a/WKhAJBvm422fd9RQBcWwJ0+jNsd+OB4jNUrAtIWAE2UByoGAJ6gIJ2m7zEKCIl9RB2ANX0YlwXsErX7g2d6k5KaWsD+D/NARQHAFhNTmAr/PUQBSjcWwLtjIC4LUHbpFgf2joCphxVh/8pFRQPAERRUUooCLPhaTh2AM30YjwU8Nh5vJRcTy0AANN5ocOEAcEVFU4oC0PZlvoA3fRiLBfgAmEwbAfJoIfvfuzW2YADYgoJpRQFIpJxTB8DXjCRiAUZXDzDZm5xcNgKAcY6AUQEA4AoKphkF8FgAdiHJWIDlXSDEMTjlFBJJSRVm/z1UEQDgCApSefq+ogCDf18YLh3GZgFO4BiXAyRDgPzJakEHgKcRWDgA5F3PM1KKAqJYAOFCrOQsYJeoPU86h9hiYp+sFraOEAMAtpwcHaX3FAVYESwAjxXE6SAnWIAVMwz0BQSuibf/K4U5gDANUDQAfEHBPqMAJZoFoOajGA6AzAWw8wBcJEzGEhM7olKcA/AUwkQAQCAoiOd8kkYBxEAxywXEywOycwG7dPf+6Gu7dBcTu6Ra5DpfFgYArqAg4QISRwGk9GfEdWHd9z/NAh6Mx/8m48vJFWv/oBtABADYgoJUUi95FIDfEXFdWFQ3AIcFKFxD83lAtJTUJZVC7b+7LBQA1NWspF6PUYDCCwTidAOwWYBljSdfkQg4tdj9H0yFiAIAX1CQ3bQbLwpQurAAK15PIIsFdO8JZCOAKyBwQcH29+VhxAGALyjIbNqNqQIUxQIsZumwCwsIOchGYPDJ+FyAJyZ2fNH2r5wqHAA8QUE2TY8ZBfBZAPn2uJJS/vfaGD8KnOwuJ3d8pVI0Ai4SDwCuoCCbpieMAigWQLw9lgMA+UjFeiJZCBAtJnZ54eYPxCGEAoAtKMim6cmjAKNLQ1AcAhBeSs6XCOm+aDGxi6oCrP1l8QBgCwpyhXyN+HlABguwGLWB7mkAoHB6P3e7d2UEpJjYMQLsf18lVjAPoMrLFVC8SxYFsPYwpyEoVhSgwAyirxU62YsPwGJiQtjfFwkVDQCOoCCo3yeKAlh7mNMQFIcFBNcLG1Q1eDLW+c8WErpeCPuDWqBgALARoNBSYTE7giJYgMJtIIq4WSKsSzwWj/VNsrEQIuAqMewPaoGiAcDxAZRgcLzpYD4LsJT4k0GkhGGSUsB4Fzm5q6qCAOB6cQFgCwrSt/fEmQ62+CzASDQZhCQMFVYpIPFypaTmVQSxfzAZLCIAdp2jsG7v6Tb5y5QVYTcEdZsMwuIlVnB34GSC+J/8yrfyEwCNkwiUBQaAIyjo5+K3vPHhK6/85o0tXSIBgy0rwm4IitcRoMAe5SdIm04mzgn9ZY4CgN1LQUIDwBYUdNJvW/7wcf3qurM++Pkrr53NjQSCoh2PBVjce8m6RQHOg3h5oGhQTP6lOPaHpSAhAeAICm75Ycc1fr1Zr9c7nU7n528YkUUAfi7AiLiXLDoKiEoETiY7Dj4SBwAXiA4AecG015qduo+Aer3j/Kl//ModHALAiAIQC+DfSxYdBbilgMd63PY4Z/h9YQBwvegAUOX/6Vjd+afp+QDns87Pz1a46iCKwWcBRuJaAIgudunq4OOcET8QBgBHy6ID4Dpv44deIPAGH7xyNk8dxIpgAUovtQD3kZKwH4jbL/aRiEGAkAC4LnT9Td//dwIIfPyGxcrq8S4DYzUExa4FOI82dsn0xfUJoriAI1WxASDfVQ8cgEcCm4AP1Dudd7cwWIARwQIS6QPgWoDFvjWsl7rQ5JNiAOAIwQFwV2D6OjwCOhADfzibLu7xdjJDIShRFNAlCpyMDwlBaODxYh8Bd3X8E78TbP5mHcYE7jlA0wBecy9VSUgYBTzWw/HPfP4dMSjAVUJ7gLvq5AoOAgyBH96hkFLB3OZegx4WThAF7NIH90ev+aUYtYCpAgNA/lKzDp1+B1CADkZF54PX8FWgBo8FWGxh0bgdQVbSU5/7yheEAMAeqsAACO1f94wfpgPxKWCfD69YCpgLVvhXgkb3D0Z1BAWloMg4YDIeCl4QwgF8UWAAAPv7OQDgADrIAdgv+eEdltIlDGA4/NhRQOStgT2sX4qXCBYLAKegg74DbN4kWYD3pZ+9pkQWA0CHbyJ9AFhCurHvHKC/3hHiCDhGVADIB0AT4xCgjllAxwdHp/lKZDHAom4tjrX/nTd4l51au8R28dSzhKqIGGHgp0QFgGv/Dub6Lg1oUiygEzgEpzoQEQVQLYUxBwODImK/1C/8wpMitATdIgsKgAOurgcZAA8ITb8gVEcswEeJ99p37+AXA4gOvwSDgW6+AN4W0ncY8FshWsIIDigMAO5poqS/jwVv3zf9oKATxgfBSz++I6IYYFANQXHlATwOcH8fTQB4/VgMDiimB7jn6noHHPgo+9cEjSFhfNAJwfDxlogoQKEuHo4rD0DeGZgs+0t/UYxq4PVCeoC9rvY3ulcICLd/0z/xQ+ffCUiB5yh+tiW6yt9DFOCXA60H0woCBakFrRQRAJ79w+jPZ/lN4AKw428G54T96IPXIsMAEAUoMaMAw8swbBzvtRuA+GxSjGrwHqqAAFh5dSc46JuBqZugEhCQ/g5IEHYAKWh+GKe2Fz8K8BMBHgec7DkGCNePxGsIFQQAs77QBOFeaPvQ3DAW9M6J8KPHG16JEwXElgcIEgE3xq8CRweCz4lRCTpePADM+kIn3OsdEP8DJNQ7iAaGR0MnxMGHCnd7B1GAElMrOHAA1i49ZP0m2ZUgIRAwTxYNALb9wwAA5P7qqB8oeK7pgyHkCM5nnc6HlhEdBfgpwQQOwEqnGWh8fPynYjQDjIrmAaZ+AST9w3Ogg1P/Tf9AaIK4sINahTr1zoe8IF8BOuRJHIBhPNE76SeTAEI4gCNVwQBw+Bc6AZnvoPYPb1/Te78DaGLHpwVu7PCGERUFJHMAzuviVYLiKMiK4QCqpwoGgFHP/4MzvY7yPM064oVN0jc0oXuoN19T2MP/hmGBFH9sB+B1A6XQC/LjJ6silgILB8BXAJ3vAOrXCU2LEgQoUGhCHLhfvfo1dkLQO9ENIxkDoCpBk73ygP8lyEjASqEAMPoVch+jQ78DyAD9CrJRyP3qB1siantGshDAMOi54Dh7f5IZAggRBByiCgWAr4QnexDPw53dwbTQ3+hNWDYgfcHPzmZGAUp4B1A8BqAYUVmAeLgI2wGeFMP+xEhA0QC4mWjvIbMAHZgGgL1BsD7UBL7Aec27Zxts6e+gSTiWA3BRk04hYPKdqiDiIJfL4gBg9GaU6+vQDgCc7z4cmpAedgh4uJ9f/UO2UgB1D0B0COA83NjzJMgkMRMmiDjM0QJ5gJvJxt863s4gz4deBCsAnTBhCIKDP1h0KECMEHZ1AG4l8P5UYoBJOwQUsSO8UADcXIf8DRzpYDs34U4PXQR4Cx4f8V3CK0y1UfIegGgG4LzssX6jP+cr7wjjAI4QBwA3ox1MRHfh6d/BR30HftYMOoeb9XCK2FlvdGEBMRiAM07QdSAgDhh+sKEqyrpIFgQA8rc7cPifqAPVw8YQMBRIVAk6dZQehC/t1DuvRbGAOAxAQe2A8TUA6PXck8LYn2wILg4A3/ZSfrDjrwmegEc6GeqDVzbBK+CDTv2D7FxvWQAAIABJREFUOxSLxwLiMQAbKDemEQJ8JIw6IJMCFAGA0Xvr6DSv08dAB6eHmijqx4d/E25/v07QefdsDgtQ4jOAbgKhk11uD3T++bE49mdSgCIAcC9O/IIDoFPH8T22dhNQPRQkQE/htxP/kM0CrMj5AcwANnLNGp8H/FYc86N7QooEwL2wwxuW9lFVkGD3TdAQ3oHpIEAUmkFbuf3xNwaLBcRoCfIZQPyhQC4jmBRIGqxarewvBADuDbc/OujBxvdPeDgQANN+TbJaCBMIQVHxNbJDKHQBcRiAAe6Lney1E+RHAtmf0QtQBAD+uEmXeonh3ybxoBnN+ptg+8OawQdbLIN5GagRjwFs7H8k9AWRDgByLLgYAFxH0HXoCxA0mmHar47iA7I7gIBS2E9qVwVYl4FasRhAvIuCopHwY6HsX51XPABGr4PZnQ5o8CM6AInG3ybrq5gdoDECb8js58zLQI0YDMBLA072EgMEtYJfPykSACq7y8UD4Lo63dvXrFM9gCgfgGeD0LgguygIvsGHjFxALAZg/9NvAuC3Twq1/+mJgPwBcB3a0ESDHzEFQPN9wvkTpYI6QFXw/T/YQl8GGocBKPAEmGSN+ndfz/1ULPtXLiocANdB181M/cGBkCZqDEKne7NOjgugjABIH75LjgzGYwD2P4/FPfLZQaBQASBzKDBvALgCoB0w0AdZfpMs/xNV4iZLNaZJDQh1gpd4H1+hrh6KxQB6uzBcUHV41wEcqRYMgLtIJ4/dNqrzh/btNAnZSMz1MT9oguSi7wNeI68eiscAjCf6KwN/tEE0B3BBsQCQ7+p00AZGp33ovJt0MhBXepnZwTrxHtA08PHZxNVDsRhA91aAyciQ4EfVimgAOLpYANxFHPxNkvA3kTsAGlF1oucHOYEmMSNMZRKa9Z9bimKh8aDuDMBvBZjssRH0RxXhAHCIXCQAbAFQ4uBHg95NsiugWecGeMQnTYI3NImmAXdkEI8Hdc8B4CzQZMJE8DsV4fY/YyQoTwB8qclQ+GrSwRvSCCB7PsHuB2wSQqZDRQF2bai5xVKseCFAKCHwWA+8L7D/hqp4J8C8IgHwpZCgM5UAOqQkXJ0aEmqidGEHDwd2oGNoUr7AaxSPnQOIrANMdn3inaqA6xa5QACc0iT6f1Htn9jXMAtQpzvFOkTuGFMBLB4S3Drxm5hJwJAB9CEP+05FRAAcoRYGAEcAFFC7Dt64Tar9n1H7R4SQFBGmKoYd/NJOvb4lSRXA9gC7JJv8Ed7+xB0BuQLgAETS63RnF9EVwN7SdVIYhGKJnUBCqkkNGLiHQGwGYGzsqgDOiQIn7Q7ASplOgMwBcMDVeLYfx+9NUAagJGLgkcAdIiZbyGB8GX7H3ySoAhgWoxIcLwZ47vtVMR3AJWpRAHAFQMmUPa38HfAAuKXJtAHa3NQ1Ah3mxLA7M3j1Fit+FcDoMhI4ya//iLn/I2KArAHgC4B2iHI9GPbrUJQOBfaMjADUFApSxnVicAj1FdTr7yZhAD3qwvxaVPtX9lALAsA9V6PYr045erqgFzACsl5QhxKhTXqamKoM1FGX0YdW5GAwuk7kxvi9gOBrP6g4I4AiIuCCggAABUCx7keTVPmBJzxQDUd1QET1qUiiidvLm0QX4dV3WEosBtBjIdAZABD0AODWATIGQCgASo964I8dnBAIju4OefTDdH+HyhATQ8U4bfBDI+K+MHSj0P1Ru53XGPKCOwEsJACOlAsBQCgASpXrmrBkDzsEcNzXJL/QJDsBmkQFsYkx0YHTJG9E1AINuhCYpAl8cvJHAtufVgfNBQChAGizTlT1iKxtEx8AcMc3aRZAHPsdIg/UIQOIoNz48dlcfRAkJr4xuf9/7vtVgRd7ICRrAMz6AjqfiWbfDszbwSbgJjkWAPr9Ozh2QCNFhKRos053GdkZYc5YEOwZY0sDTkZV/3/9pMj253WDZguAqV9g5nZQsx9Z46dFQPDRzhAT6eBqEml5UFXwkgHMjgB8p+CD8fM/k377f0VkAFxVAABGvxC256GkPzqf6eHPJmoabpLUn7xJFEoFEx1C1LeyeSAnHYgYwBNJk4DviG3+6h5y/gBwBAA7KPFXh4X+Zr1++umPwtXs4EphkzUyTrSHNGHGt4loY5h46sAZ5DcMqxsDiOwEmGQd/xvEtj+/FSRDAHylDvc8OK9Pf/SoZ763/aGHXtJ0XdPB0jT9/Ye2f++Zox49nZQBITVBgBQA6iQgFac7VC2p/rOzjUgGoIAbQiZj9X/84MlqRXAAHJ07AOSv1PFFb7YVTj/qme3v21aXdEnXnX+9P8EDzfmK7iMBqohgH0AoijSpPqMOeblAx/vCb7oygGTCYC8I7v6r1ephat4AGL0ZuelOvf7oM9tfsne55Ftfk2wI6MHnevjB/qO5T7+//ZmjTq/zMgSUSADuBqYkRty1JZIBGBZfFYQx//HcR+LbnyEPnTUAbg6u/nLO+qMeesmxOLS199c5B0I0QDAE4HjpIQcFVE6hQ0yI1slmEOK+Sbsm2XHygREMQLGS1IF+8OQG4c3fjQKmDwBfANT11c88pOmBYV2T+n81CT6h+Ttfw67BPRRe2v7MUU1aSw5kkuqU1jBKCoQYeSOqCqCQFDCiGjT5yxJs/+g6UCYAuDlk8Uc9FJjSt3BgeD08BMK9j1yEFh4XkmbD6KHvOQcCJSNB3CJEKgqHCHFcwMdnRzEAK3br72+FZ/8xsoAZACDY/49u14N9r0mkB9Cwz9dcDui9QAv8AHyj/XX9/e1HnU51BTaxeHATzxqRpYhX+AwgfjPo5I+f3FApAQAqn1TzBcDNbg2v+cz7WsjzfbsSHEALfT6gBRLBE5BnkDRdc0DAyf01sZhoJ9CXB1nDD86GkoGYAThZwBiCQM99VC3JmpcrAEa/7Qb7z7wUGNVzA5q/kdEhIEHO532BIgla6COCKEF//3uPNolGwg6WCsLqI3Aw5Q8KEAtEk+NdWoEmwf0vJVlHqrkCwBEAPf17cIdLgOtJmBKET2m+iTFNdExNocT3Jy9tP6pJZgTYt4h08IUCV98RygVjBhBvHui5H1XK4P2ddX2uAPi2vfu3a9iIgVsPT3TI8zU6NvQPB2BsBlAcv/KQzQjwhHCHuHWyQwiI1ev1nyscBrCxexvI+PgPfloa+1cOUfMEwL122Od5cQ2d3+FW1kDGT9JCbiCxYgMEJY1OI9j40R965nSidMCYJCCcxBYrEAxDDODGGKn/H22oVivVkiDgmBwBIN9brx/1kq7TblyifDtBCQHN04isIHE0oOhA87/3+8+cjq+XDdVCiDtGPRcQVAVxUihGL6Bz+pfF//NHwrMAwL2d5naQyvWDOQ1we/rwB9lh7AT812lhzlDi/pV07f1nTu8Qc4Fk+1GgI1uv119TLGoWIOgF5A+DP/dRReDOT3pdlCMA7nW3PyfJ4+d9pTCcw3lf4OA1KlcEYaXTqaQQA+jOADwf0EEio+/6s4KoFaibOPgLT26olGj/R04DpA2A6zrbg5iPkeTRJVYWSAtPeugQ6NfpmAmExCEID9032nyAqhISyUAXBG8wGECXMsAPfuq1/ZcGAZfnB4A/Pv39sLQfntYS7a41hneAR71Ovk6T6BoCP2msP/RMk5wo6pAtwp1O/WOaAUR3gvz2ow2lMn5cBpAOAK5z2R9AgJf5B5EbAQUNBHiapBO+gPqLiwhuV4GGE4WBx7HzA3WyWahJXDL0IckAmJoQPh2Y/OUGj/yVCAEX5QUA+bpndLyksKIbHvT+2R5saY1hacABGIWjkA8Ae2MMeDmiR5twogg0h/gk4WckA/Duh5lkc/8NZdr6iRxACgBYul2nF877QYpPnw9kHpBzaHiY8DPMYajglhTgQWLnik+v00oB4cxR/UNMAJADwCj49ferlfLZv3pMXgC46yFJZyIgLP9qRCaYSPwBG2uMthEdZ4olv0SMyISOk0n2D7XpAK4DwAnVj4lWoPs5mf/n3qmWcsV1AH0D4EszJCYAUP0m3PmA6ms4KeBnBlk5Xwl3CrGCCuwn3I8vfe9R6rLRICLALoAnCfBCGb1/zCpAKgA4ZcZLOmcRbV5hvZ95uGsSsyao0ZEjKx+AgwvwM4OoAGuS2YEAqgPezwn9KpVy2v8wNR8AHDBD0vUoBGjA3kHxh2b4JAMARWAc/4FEMpE69hiC7yaCRy/5bAA5g06984YV1gGNXRgE8NcfbaiUK/ILk0BH5wIA+Z5FEfbn+2+wf6mCj0bnCTSyZVTSo1pGQISoeQWjo0iFAdsbfAx6gekk0KRz+JfV/peouQBgr/l69CIsrVGZXLJ2iGICTWJ2h+DdrzECRtg6oHn1oiZ1AY2dDvR9wGNUBPCC2/JbzgPglqm5AGBWN/tHFQbCHK+kkwUjuKs19rdgZgg0kCcI50yk4CQIzO82CbyrbPm///6v//rv/3fL2TT387ZSOUOAy9U8ADB1b0mPiwBNZxtOwljQYCiP24dwdxBFH1COUZPoRISu69sfhVLk9fr//m6wXiOqPpWyHv5xG8FSAMDhn9DjLGAPwndLrP2Nd7JGOxFmgpB+UgP+I2CP2kNHhXWhD/7tu2D9y+TAmL+SgAH2A4BzYtmf2QxCtvhpjOg+rPOiwRFGqZBRKCKmUIIPmksGnGsl/+G7aP2/SRcCL/zUM395EXCBnAcArtD1uAgASVpNx8ka3BGkhRUCHPWx5soYJwCjdgzSQt5LHDLQqf/bd4n1L7bUzwtPVkpW82XkAEfVHABwoCTpeiIMEF1d6CSAftpPIYOUjwa+iSZRhvcPAE2iPAoJN/fz7Y/C8z/gAZMv+P0+JTZ/tXK+mgMA9lqk6QmWlw5inPWSxxOIPEHow7VweDywJI4CdfpNIXrQiRMmHbb/HQ2A7zqj/pWSO4AkKYDeAXD43nqihbL4MCmso/EhTdcp4odaROHcMCPLhHKN+BAgKAPDAXz3u39fvpo/4wCYmgcAztETLolo+giDOi1EhYSOCY3TBSiFTAH1CON0sYaRQZSPtP/DAsA/lv74r1ar56s5AGCpnnihoi+xiTVyTJzF8zTmkClqJNCIzmPcfwI7i7V/YAHgH7zcT5kRcIGaPQDke2boek8QACyO3Nkav+sbb3+aTOrgG7KyCohJeN+NCYCfVEu/DpNzAEBSAgAjAY2gd6yuII07JUzRO41sLwneGLJF+FTwI9keoFIpuf1vWZkHAA7We1wwya9hh9ClDuAfAND/42RyOGAG+wb8IBPVCey/bA9QdvvH7wLpBwAH9mp+DXf+ENs66BYK6wBhWZ+oCgCbk62nEho+QuzPSyc434JNAjeU3P6XyDkAYNYivR8PgGc8cY+/RM2Ggry+zsr/hfUCskU8/KgREafzrblhYJkzQEeOqjkA4Jy+7M/IAgX8Hk4I4h5QcnIQOQE4jBjKEMKEIUEa7GeeZSSC/q7sBGB/NXsAyAfqva+gdRuk9HDlVtNR3B5MD4TD5RrVJEQNIvvIIhpGAdF49uX2PzEcwKb1Zd7/lXlqDgCYukjva4G8H9XCqQHBUDLmY4X+iDlqKEtIzhjBaoD09suNRqPxHxQDmJiYmFhfXhpwvJoHAG6S+rO+JlEiQIC46UAQDOaLmYNEVD3AH0cjzn4NBZ7a21sb7voJEQKsmJhoTUxMrCgpBI5Q8wDAKbqk97mIaUE84iGBqR9QRtbIrU4OFBJjYzoWpgSwe3tro91omA3KB/zj3bYDaNkYuO/YMmaARvMAwOHz9f5PALKPl8zYacCIZLs/0hjWaBqg4cME8AHn6be3OrZvO38bjZ0DJvh3fz8R2H9iYqJ8ZODIqWoeALhC73+R6h/BRqemf8mAkWgwlNAJT5QEwu7CMIhwz35v+zsQ+JN/+o+f/OQnP/mPf1rn2d/FQGtiolWuk+CQ/dU8ALDXDD2VhQJ2DUMBDgASLYIa1fGn8/o/SXg4zL8Rbn7HATQeGauNuav2u8AD+F5g4r7SuIHKHivVXABwjp6SBwCMjRwfJE51jZgq0fBskEawAlJoKDw0/rmNN7/977paAIDHvY0PUNBqtUoSE9xytJoLAE5JaftrjI2qU1KCGhnkgZw+e0CIkqUJe9HfaweWbwcgOKjmA6A2NvYi3P/hozIQwlvOV3MBwOh8KcUTwDelFg4Nabi8S7YCa1TnsIaGSuAgIu4yeGpzw9//3kcHBQ9sq7kQsD887jmAEAMeJ9wkuhvYfZ6aCwDkpSnZXydneGgqL+mMp6FiKKUbSZSYgGOQnt3aAKd/eARMr4HluQCEAu9ImJhYIbIb2P0YNR8AHL4oRfsDO+k6NfRLxH6EVrROqAlqEtSdwEMomiT9s3fwexGABwKz3Xi1hhDw+CZg9WD/t0R3Axu+o+YDAPk0PcVF8DhUsUNFYQ30DvidxRrdLKprrDhAl6Sn3rQ3vOnt/zZwBcgB2C7gd3j3Q/uL6waO/VM1JwBMnZGq/TUqd4e3LqR9OPSD3gInkjREAZ283+YGdz1cI5bjAvzzvzUBvIGPBvHcwPr+7R8XAFfoerouQJfwBpdYNT6JEppBUkL4SgGcLJAk6feBtdum6wjsB97Ht0gPMPY7kAfyjn/gCETMDaz4czUvAMxapKd9BGiE5A9vllwKW/01RtuHpOnEMLj32VOewzfbDUT+3I+UA6iNrSOPgAAD8FQQJ0W44b407B8PAHLKDoDqAdJAUkcL4z9YySOSwqToaHgqOD7j2a0E78chQOMtCgC1ba9P4CNgAqQFwiNBEEZYWT/x53JuAJiVifkRF2BPAzEPASdpwFWPcf78J7XtwxDA/nhQjbHW3YdOgBaRGgKUsHgMbFjR+loq9o8FgPQdgIYEpBi3RWi4WwREBYzxMA1NHunSL970jW8CBwBjgFcZ9h9b9zzMBdEkENGBYjFwbGvia6qaGwBSDQG44jFE/ha1B4MaMdE0QNcNnn05rPm3oQsIH09nOYDa2LpjiRAAeQOCDxSIgQ0rJlrfUOXcAJBuDoA1JQBkIIiLwjR81xAIDLyLZ0kq4JE/ZHqX+HuYsB8+zAbA2PNc+1MYKNAPrG+1Wt9Q1fw8wOGL9GwQoLG0P7l3TmCJMIm8jMZ94IT+YcLP9wVtdBSY22ocBDw9Qbh78g8VFeSOgWPtH5qe/eMAIBMHoNPdHMzLg1gTpLqEvEgYREi/Ap7eBHbHdPARtv1r28Y2T5DbnvhLVI3d1VqRGwjWb7J/4N+qeQLg8EVSpghAkqLk/UISOVQMBz2h+qDT8rUZnvbA+mb4idlomOtqvDX2NLXhyb/oK+AwWHFs5iDYsN7NVn4+rfM/HgCWSlkBAM9sSxG3RJKtwRrqEvBe+F5Q7DXD0A+7BOfxQXz7jz3eAmlAXBKIfmA/vC9TR7Bh/Sb3Z31eVXP1AHtLmp6lC0BkAF8uCFvHNYmlJRYygWc3o3Yf9BeHgq/WIhDw4gQrAKA4YYuRJHQdQUbZ4g33ecdNyvbvDoBTstv/ZH5XYkyQ0S1jaBrAdwU++SdOe8ITOA/NWhQAHies2mIaH2z71sQEjAxatiNI3RPYR7/3M1O2f3cA3JSt/XGGV4PzYCC3AzsAWdJA0tYw8e8nfMyA9Ae73+ECD9ciEfD6BB3+01FB5PEw0WptSo8Xbli/AhQlPi/nDIBZmToApN6FJF1YdX7WSJATEL79ptkw2RseLYckvBUNgHUrSK9PpQYZ2UKULPYpRN+uoLJhg0P7w+/7X9O2f1cAnKbn4QGgoAd5EhA3jTKqBu+1G+EGN4PtHzwVPmg02gfVotfY8yT7o5sEcHmI3T/gf37f+vW9xQcbNqz3zv3gN0h//3cFwOj8rPe/hsf5fWkPQiQWOH9CIVB7dis++2Hdr91A/5jRFNCx/zY3FKQNT+94oljAShgEUaLtDTYksP2KTRNUKqp191Q1bwAc+JKewwo1Apji8lQ5EJ4Eb78JUn8EBvCZ4PCA6bVuHmBsM+NspyuErJQAt6swzBasWL9+/YZjN7BuItqwYcOx69evcEw/QTudiYm7R9W8ASAflz0DkNC0h8a4QFQjcsHwgqH32kTdp+1b28TtgCanFYwXCnIawzhNY0z/QKWT4Wptum+FA4f1ttFX3LfJ/c5oLgGDL4v93w0As7Q89r+OCABDD5ghAeeh5mVc8DPDfB/pBrw4YFutOwLWtVhW5hYHmJZHQQS7tsBbMNMMvvHd+6v5A+A0PZeF83poTIh3ZzhM/jS8Zj8AhjawugnA8EgtznqeEfC1WFUCVlDIyRRy60u8P8SrM7J/FwDMl/Kxv0aP+xD3gWEtIPdNbuNHmwz7yOJP+LnZjQIGJQHeoFCL1zNChwN0cBg+HwUG+kc7/n+lWgAATpHy8gBEulcjdMOpG0XtJ0Dyr42r/kT/j+8DYlBAPx+4ien3afrPTRfwW0oIGkn9jwmmuz+lFgGAg/XcFroDVkcZQDQvGmaO/9kb8SFjvTbkAybuDYl3Ajj5QKbbbzESwlTGkA8TZkIh8hjw/f/RcgEAkEdn6DkuJAOALwpGkaC7/Z3kLy/jFxz84Hiwc4XmA3EBYHeHcatCVEzQovtI6Gpi15ODakIIXrHpaFUtwgOckKf9GddH4YlveCe9ZNM/lOw34UNGOqgd/wRwkwEtXoDfYnYNU66fYvGtmAhoUYWIu89XiwHAcbqeLwSAPADZOYyygNKzb7LS/OwhACAN8XBcAGyzB4WYRuTRvhYVHkwwpgyp3GI3Euj8ydL+UQCYKmkFuACN2RuI7396O5R6MamZj6Ab0MRFoHhJgPAQuC86Bcxi/S2m32fMFrDiBVYAYH+yKVP7RwFgqa7n7QLg5SH4qtkwVaRrT7VxpyfM/7VN1AVigrjAPKgWf41t29rieW9WXrjFdfK8hDKn1EieAK15alEA+IRUwBEgEdoBOtYPt7HxXrsBhnyAp2ekA1Bc8GotEQJenOC2ghCMDQdxdAKR+V5eMRFjZtNVakEAkGfp+XsASWdfAw7Lg78Ker7DEl+7QfaDmXQ9yKwlAsC6dZuY1uNVhdhOgN1g2uKVl8kDYyJr+0d4gNP0AhYW/mLdKv0yJnptPPnXRlTQRK2Bj9SSIaD2fItmeGz6x6b5PKN3KyiB73W9XBwA9tYLQQBDQgxcASltZSV9Tcj123QW2F0P1BKuuS8y83LcKhAnj8fpFuGwfvT8MapaGAD2kqSCEAAUYqDws/P0VhM1+YFOAJz4QcNBpvPs9G1JAbDt8fta0dn/CT4CmJyRTvkyjxL/wUVygQBYqukFLVwEhplBt/pL+wDGICA5HZL4BHBUQ7Zyw39fQ4KVuJ1o8bM/rS7HBETEd1S1QAAc91KB9tfYSpIvh2W9NnXs42Eg+hRIfALUxpxIICIMiM7kRnEC9tmAXtP6jlwgAOTDC3MAeARABxIALyPSj8d9TGhvM0wCeJ+a8dPAKBRcd2yXvc3e3Ow0zwQvFcR85k/lIgGQbx2AjgaBFEzgDn6Pj3zU7A/zAGSPkPv5w9t6QsBm6vDmyMl1jwtazA4T9tts+6tqkQA4Ry9waYSQmPPoV/BEN1lMHyYAQAzY6wngIGDu60y9mGjKHxEi0GkjdvPYn6tqoQAYnSEV7QLgxYCapP8nFdjBXmCsBdYmUgQ9ngBOJLDuaW6Wnlu+4zE+VhhIK1Tbr8vN/jwAHFikAyCOAOfDU6GTNwndb5NggW08HOSdAL3Zf8zuDmpxRoW5bR+s7i9WUwhV+PffnJ/9eQA4WNL1gjGApsB+YTZgYb9Bdn4FFjcbqFGo0d8J4M0J0HVhXi6fDu5bSHOSFyXib/Y1tXAAzNd1ERDg1wPfbjfIXu82kQ+ADcDI+Tvv6/UE8DRE+VNBPNZHbPyI7lGaTuRpfw4A9tJ1MRDgtX+3iaR/qPthtgl3D4YDeq8DEGWhp8nRYMrWvFYfTpNnRHF5ovW1UbloAMhLdYEQIEmbfVpnsnwA1RfapieEH+gHAH6TcGAuUkEUo4LbCNDilgLhO78hy8V7gON0MRDgHgFb/WOdavpqs1vCgv/5Z4BZ6wsAY5s3TfDEAYLEHeOIZ2lLRbaWT7QmvrGrqhYOgHzbgbvxgPfaZPc/bgLyH7lq4PQ4WLth9nMC2AiY+zo7Zx8xFcbp/uHk/YKPf6uqAgDgQF0XBwG/aNNenln9h8MgRH/QA7U+ETD24gQ3kc9rEaCTBmSeiE4ZpSoA1jsADtaFQYD27JuM9n9mDzA5EN4OggCz1i8A1q07lq0b3IpM+mGiMME69NELPq+qQniAvSVxELDZJwAm0ACB2T8ThAbt8NiH7uCgWq1vCDx+X4tM7XCsyvIEkc4/ePrzshgAmCqO/fVfUbVd1PJHngXwMAgdx6spAGDb4/w5H6oplJ8dZiWU/Q8F7H82AE4QBwC/MMnwjkACrAubDXoywPn7Vi0NBDw/EXPomz0tEKUx5gqAjYoCAGEoACIARCqgTZ74+AyAAgHT+7d/bZt3sRi/l5uaEWNBgnEFiR9G3l2I/ZkA2FsYB/Ay0vwm2KBJqoEStDCoFj5cS2WNbXt6E6ebI7L/hzcHhl9YzP5nAmCWMA7gKdz/0w5TAaHRTSrvT0UKD6QEAHdmmMX4mM9F9BDTKLp7qiwMAE4QBQDPvgmyPYwiUBspQwQngAlLg2YjlRPAcwGPb2rxGvt8qdgJotDfihj9CZ/PRgCqNwCMCkMBfs/U+4m4CgbGAWYAi0dSsv82rzmAdYtIK0gHt+gpMSblg4ywQPuzPMB8QYKAX8DpLyD0Q9QFTXQCMHzFw2l5ABsCmzex7pZlJHqYPaIcEfLC/D8TALNECQI3h4d8m5R9gmXBtkmG/5gMvJUaAOyqwOZNnDZ+lloMfcsIqxZ09/7F2Z8BAFEKAb9AGr8mHgRiDwQzc4LTa2kue1iEUeXjbXyujih49d0rC7Q/DYAMbgntKQXs5oDbrPJvu0EOApL4N3PMAAAQxklEQVThP+wZeyRlAKx7nlH4Y6r98Od+IE3ITgCsRw/wCTEcwFOk9ruJGgCpEdA2mRJsp5YHplrEIho6GJnCFq/10xMAU8UCwKgYFMB2AGZ4BRDc3CbdDGSyUoLe+7alCwBfP4g77UXfLMZRlslcAKw3ABwgjgNok1OeJq77m8DoAUhMIiCcXkt7Od0BUQ1e/BtoqYTR3eerogHgNKFCALi724yuAFIKCjWCJdGGTJgPeJF3ZURE2x89ONRqFW5/GgDnCHEEvB2YsQ2tGQoCQlyYsCsMXREUWx04sRN4scWXimIJCbB8w8Td81TxALBICAfwe1aTF1sEhmoUwx7irWwAEOgI8mIBaiaEkRsSwP4UAGbpIngAqc25AMrkiMBAFohOALOWzSJjASwXwBwJIY+LTfNk8QAgC5EG8hpBTdzW4YX22Pc3wKsIVSgzGwoQ+IDXyUOA3TAILg/CTuB6EexPeQAx0kCMMhCm/8D5U7qwyF88XMsOAc9v4sz+sEXkMQ1oiWF/ygMIMRKivWkCmQ/2/X+A9qHH0F+0Y+uD9zwv0uJqyJC6T0S3wDGqKiIAxOCAz0Ki38YWpXBA7H/sLsxaLUsEPL6ixe37JTY/4RS+s6uYALhHkE4gPPtPXAfUxmFfKA1H9YU2DsoWALZ8BL/vlzcm0JqY+I6qigkAMbqB3gsFntp0rY91EwBWCgoIY2YcMFSR+t0E974I7pUyre+MyoICQIxuoJdxCGgStT6zgfY/2RoOgoD2q7WMETBmXzXb4s4NsluH/1QY81MAEGMseCshBojaPdqwCIzqv4w44K1ttczX5vt4s4HsxgCh7E8CQIw84GaTMQtCa0QxmoBN7DDM7M1fG5v7+NPUOOgER/09XwGo5ADYS4xa8ObI3B7o/mMyBOAvDqrlgYCxda9zw0DaA4hlfwIAgrSDbQUd3m0iuccc/muQ0qHew0dquSBgm+0E+JeLISh8TRUZAILUgl/mj36bzIgAPQdcxMO1fNa2det+xxP9wCeAaPYnAHCOEPbX3jM5R4DJmQWge8PcvoAHcgLAmN0ufCxXKTwEg3D2JwAgyEjAL3CbZ7vBngI0GehAJ0BjWy23ZTMBXu0/ePC1UVloABwuyEiA1O4i/sHBBmgOc7IAZo7232YzgRcZsqAgPZCzAFhyAAjSD6jr/2nytzlTBIh9BhxUq+ULgdrmp6msYAiHb6gCLggAWZSxUElq+wo//BOgzSQICBWP1HJeNhV4miUbbn/4W1V0ABSvEBwg4Cne5A+0tslCRxu0hz9cyx8BY2OPv34fo/1r0/M73yk8AI4T5QjQpadM3i5v89kBlhNvmK/WCkHAtrlbnybz/08/PjY2907RATBfHAAs+nS70eDtck4MYDagkJjZyC0KpBCwbezx558Gc8RPb91mByRzDxUbAIcLY399xgGjn24wTwBc7mWfAP6l0ttqRSx7bsBecx/f+vzzr7/+/OvPrxsbG3PLBocKDYADBLK/rKqX4vJ+nCgAdok1GmatoOUCYNvYtrF1zqOaHSA4a+5igQEgTBCgzzhFVlVZvpTuCW3Tc0Em2TIWaEZMLwoAthPw/cCYt/trgiJgRMQg4EAPkZc2mPl+mBRuE9Og8Ax4pFbs2mZfQEyuuYtlYT3AOYIQwFP8X0g+NyIKMJmycbBJ6OGaiGvulcJ6ADEqAdKB4RaRv0qdACZXJxr4ABcLYgKgNna7qACQRPL/7hr9KqvobzLkAc1QMMiHwqs1QRGwVkwA3KOJsP9PICZVvkpme02iSRw4h3YD6Yc/UBN1rZUFBIAQY4Gk/VVVXcuRhCVJgNkgLxV8qyYuAkT0AKcJcAScwPgV/8xk9wC0sWwM0hB0nqoJvJYJ6AGKnwmQlrJco/xn05n5PwSJtglvEjfTuCck23WueB6geHmwpZxf8s/4DUFt1iVi7jPThQZA7TLhPEDRpSDpNO5vuXg6UzKoTRMCMD4qOABqlwoGgNGi9/9pEdR4MTwBWC2jbbT/HSp4kOAAqF0rFgAKLgVJB0eFRvKh00PVjzZnbrgBeEDeDWE95QOuFQoABUeBB0f/njYCGjjT2zDZhMDMdSqkPx8gCwSA00S2v6rKd04Pk7xmo0HqBYHRYe9lJQDA2EmyOAAoNAo8OMaNORdPB4KhhHoI1hArqCW0lAgYEaIh8KZY/xlsBICz32wwCIEZ3hlXBgDUamfJogCgwFrgOTF/2T2nY5kgeAKY1Mzgw7UhAhIAQC7sxnDpnNi/7Z4HhSW/YMebpJ6Q90lJAFA7a1QIAOwl/P6318nTqSlwghCEVKAsAKidsZ8IADilqP1/XKINcPJnyYbA8OwnmgJLA4CxIhEQAKCojtBk9lflkw9qsHuCTKIxvDwAqNUu3K9wAMgFpQGOOzzpbzzls2RDIJAQg/OBJQLA3OIQMFJsGuAThyf/lad8Fl0RREqIBaNBj9RKtC6cUrQHOK4s9vcQwBCTb6PWULNUACgMAYEH2LuANMAnerwxdb/PBreJtFkSQu1GmcJAb+02pVgA5J8GkPbu+cZcGwFt1pQoHA8plwcoCgE+AAq4M37vPm7MHf2sSfUEtQO34OLioFrZEHBygQA4IP/9P6uf33v0bxgyAW2kMl46ABSCgJGiugH6s78q2wigR0NgS8j00gGg9uWTCwPA0pz3//xZff7i8ujf0CpCqDhYQgDUvrxnUQDI+a6g+bNSqIF9k9EWBOoDZgkBUNt5z4IAcFPO9k/jd5e/SaoItdEZsK2EAJibNwJGimgHmb9XSr/9Nzmzgi4GHqiV0gdcXAQARvfO8fxflJb9Vfnr6BIp4jbpcgIgZwT4HiDHPGB69rcRgMfDTVgVfLVWUgTcmT8AZuW4/+9J9f/A1wmpYFAVfLikAKjlKSjoASC/6+IW3ZNyD9zX21QiyCsIPlIrLQIOzRsAueWBFh2Qdg+k/OkGcaNMu7yZIL9HKD8EjOTbDzTjgPT/L9gIAJcHBkeAadbKu3KTk/MAcFp57a/K8qdN4gTwHr41REBcAOQjETjjgGxuTHBOgQasD7rpgQdqpUaAnCMAbsoDAI4AaCZLvtQE18gGSeGHa6VGwJU5AiCPRKB0YHb/N3xZ2QZqDXyk1ADIR1DQA0AOicAZGdrfExU1cWtgicMADwFrcwPAIqnM+9+BwLnkbJBZznIQWtkLCroAyEEeJmP7q/LoV8NuIF8l5tVa6RGQDwCyzwSfkD2ltUVF8WxQyVmgs5blAoDMOwJPyCWm/Sp5d9j08gMga0FBFwBZT4YuzSmt9dUgAPBKhAMAgIwFBUdyyARLednflZVtg/nhVwcBAZdmD4ClA7H/XQSYsDnw4UEAQKaCgg4A5ExbQk/LtcXpyulQOnj6QAAgS0FB1wNkORp8Rc4aOIvhGVDucgDwAXK2HiC724Kkg9Wcl7zYHLgzIEM5OdcDZCcUnrv9VVU91DQDBcHBOAMyRMBItqWAIuwvu7KyXmVwQM6AzOTkRjItBRxckAJaICxc+opg5ghwAZDRdVE3FaaBePF0vzBk1gYHAaNZAWBWNg7gHLW45QkLmwNDA2sZCQo6ANhr4Ozvyso6ycDpgwOALAQFRzKrBR1XqAKqj4BBooGZCAo6AMhgKkAq2v62qGjbFOEO6VT7BFNHgAOAE6SB2/+OqKh3wcBbtUHyAVPSB4Ccei1I6k0AMH0f0Cj3iFgOCHA8wBVpewAx7O9KSrYb5kC5gJTl5EayqAWJYn9ZdkVFB8sFzE0VAQ4AUh4L+cRUYS7HthFgNsx1tcHyASenDIBz0gRAnwKAaSNgv8+2B80FpIoABwCfSBMAvQvAZrNsWdmBygXUUhUUHEm7GCjU/neWLSk5vTZEQAQA5ktSevaXVeEQ8Nn2IFUEPATsmSIAUqsGS/MFtL/jA8xtAwaAsZQEBR0ApLb/xbS/qsp/M3A8sDaWjpycDYCp6QlAiml/R1Ly1UFDQDqCgiMpTgbO30sVd31zwPKBaSFgRFXldDTipEUi219VvzlwkUAqkpIjqbUDCG5/Vf36I4OHgP7l5EbSagdIWQA0i8LA1wePBvQvKJgWABYdoIq/vv4nA+gDFvcNgNETdhD7q/Kn3xoigOEB+u8HmVEK+9sIWDc2RAAFgCt2FPurqrqsNoA+4MqCAZCdAGQGPmDtACKgH0FBOw/Qb0PQgWqJlrx2bAARsLYvD9DfhVFSifa/s24fQB/Qu5zcSJ/qAJp0YMnsr8qL5w4RgDxAP0LB5bO/qqp37jyACFjWuwfoXR5Ckk4oof1Vdc8vDyAPOLdnD9B7R5h2glrONWW3AaSCl/UKgPmCC4BmsfY7ozZEgA+AnjvClqrlXfK1A4iAS3sDwAxpx7O/nRQcwFPg2p4AUAoByAzWoQMYDCQWFBxR5cN7CwCuKLv9VXkAg4HEcnIjvbYEHqwOwNrvpB0eASM9KgQNhP1taeHBOwaSIWCkt3uDB8X+qnry4MWDiQQFR3rqCR0c+6uqvGzgSgNJBAVHVPWUxFHgTbI8QAhQ97xw0BCQQE5uJHlPqHSOOlhLHh00J5BAULAHAAya/Z2A8MId1QeMJL4waADtP4hMIK6gYGIAnCOrg7lOPmvAEDAlJgCSqQQKIACZ2Vq82w6IgBFVPS1BFCCKAFxG58C5A5UWiiUnZwOgbAKgWZ4Dg5QbHouDgJEkYwEDb387KXDSALHBGHJyIwl0QncE+9sQuHbuDoQAGwAxOcDeU+UdAgCqfPLgQKCrnNxI3LkQSTwBwOwQoJ586dwdBAEjcZWCRRMAzXpNGZSIoIug4IiqxhoM2oH2v7/2WzYQDUNdBAVHVPW4GB5g/o5nf3ut3W0gEHBxFwAM7c9nA4sHoV8kCgEjcbTC5++l7rjr4gFIDEQgYCTGzdE7tP3t9OBlpeeDOx8aAYC9pZILAOZxEpTdDXDl5Ea6zYZKQ/u7McHaUrMBrqDgiH1bQKkFIHPMEZ9b6r6hxT0BYGh/TAeWlRcDbDm5kejp8BIJwOWHgdKeBVcyASAv4p//Q/szKeGUtWeVkhOyBAVHVHVGxP6Xh+ZmIUBWp9x+0tzyjZczBAVHVHnG0P69xQWLLy1fsWAtwwMMggBoYYHB2rN23lZqBIyoozz7Hzi0b6zj4NDLyhQZjC0jAXA4TwBwaNyYEFDVKbdfW57TYBkBAPadYdrQ/glRcPGys8pRMsCCgiNsgRDpwNGhUXugBFdedkYJgoPLugPghCH/63ldvPba3cqDADYAhvbvc01ZfNkZIueKLo0EgLR0aP80aMGhy04S1hVcGwWApUPjpYeCPa889yQRhYl9QUEGAIb2TzdGtJOGF99+2VliwcCXk6PDwNOG/j+r3PGday876cK5wiDABQAhFCodPLR/xuvkQ28/96QLBcgZnMTKBB48NFBO58KUO68899ozCk0gnksDYGj/3M+FPRcvu/Ss3Qo5GMamkNXAof2LoonOwXDpWRfunCtTvNIBQNARJN00NEfhQFD3vPPKtededtJZF+ZwOtyOZwOH9hfteDj5zsW3L7vs2pPO2C0bzrinKxU7tL/gTsFR5p1y8aG2a7j2pLPOuDAdPIyd4d0YcqAzGnLFMP4rCy5sQOw3Zc+LD1185dpl51567UlnXbjbl5NjwtGOGHG+5V5Llw77f8vtJZwjY8rJe+558Z2HHrr4yttvX7ts2bnnXnbZtdeedNJZZ51x4YW77fblnSFIdrv0ZDUAwHDtsGsIgB18/X86DCG2rzvCrgAAAABJRU5ErkJggg==;" vertex="1" parent="1">
          <mxGeometry x="540" y="300" width="62" height="62" as="geometry" />
        </mxCell>
        <mxCell id="NZkZbd7a0sw77gBRgtX3-15" style="edgeStyle=orthogonalEdgeStyle;rounded=0;orthogonalLoop=1;jettySize=auto;html=1;exitX=1;exitY=0.75;exitDx=0;exitDy=0;exitPerimeter=0;entryX=0.91;entryY=1.015;entryDx=0;entryDy=0;entryPerimeter=0;" edge="1" parent="1" source="nFuh9qucb5mVnLctKsbE-23" target="nFuh9qucb5mVnLctKsbE-29">
          <mxGeometry relative="1" as="geometry" />
        </mxCell>
        <mxCell id="NZkZbd7a0sw77gBRgtX3-17" value="2020-Present&lt;div&gt;Data&lt;/div&gt;" style="edgeLabel;html=1;align=center;verticalAlign=middle;resizable=0;points=[];" vertex="1" connectable="0" parent="NZkZbd7a0sw77gBRgtX3-15">
          <mxGeometry x="-0.0449" y="-3" relative="1" as="geometry">
            <mxPoint y="1" as="offset" />
          </mxGeometry>
        </mxCell>
        <mxCell id="NZkZbd7a0sw77gBRgtX3-16" style="edgeStyle=orthogonalEdgeStyle;rounded=0;orthogonalLoop=1;jettySize=auto;html=1;exitX=1;exitY=0.75;exitDx=0;exitDy=0;entryX=0;entryY=0.5;entryDx=0;entryDy=0;" edge="1" parent="1" source="nFuh9qucb5mVnLctKsbE-29" target="NZkZbd7a0sw77gBRgtX3-12">
          <mxGeometry relative="1" as="geometry" />
        </mxCell>
        <mxCell id="NZkZbd7a0sw77gBRgtX3-18" value="2020-Present&lt;div&gt;Data&lt;/div&gt;" style="edgeLabel;html=1;align=center;verticalAlign=middle;resizable=0;points=[];" vertex="1" connectable="0" parent="NZkZbd7a0sw77gBRgtX3-16">
          <mxGeometry x="-0.4682" y="-2" relative="1" as="geometry">
            <mxPoint as="offset" />
          </mxGeometry>
        </mxCell>
        <mxCell id="NZkZbd7a0sw77gBRgtX3-21" value="" style="edgeStyle=orthogonalEdgeStyle;rounded=0;orthogonalLoop=1;jettySize=auto;html=1;entryX=0.5;entryY=0;entryDx=0;entryDy=0;" edge="1" parent="1" source="nFuh9qucb5mVnLctKsbE-8" target="NZkZbd7a0sw77gBRgtX3-12">
          <mxGeometry relative="1" as="geometry">
            <mxPoint x="685" y="340" as="targetPoint" />
          </mxGeometry>
        </mxCell>
        <mxCell id="NZkZbd7a0sw77gBRgtX3-22" value="ETL&lt;div&gt;Config&lt;/div&gt;" style="edgeLabel;html=1;align=center;verticalAlign=middle;resizable=0;points=[];" vertex="1" connectable="0" parent="NZkZbd7a0sw77gBRgtX3-21">
          <mxGeometry x="-0.3314" relative="1" as="geometry">
            <mxPoint as="offset" />
          </mxGeometry>
        </mxCell>
      </root>
    </mxGraphModel>
  </diagram>
</mxfile>
